IKResults
version=1
nRows=17
nColumns=38
inDegrees=yes

Units are S.I. units (second, meters, Newtons, ...)
If the header above contains a line with 'inDegrees', this indicates whether rotational values are in degrees (yes) or radians (no).

endheader
time	sternoclavicular_r2	sternoclavicular_r3	unrotscap_r3	unrotscap_r2	acromioclavicular_r2	acromioclavicular_r3	acromioclavicular_r1	unrothum_r1	unrothum_r3	unrothum_r2	elv_angle	shoulder_elv	shoulder1_r2	shoulder_rot	elbow_flexion	pro_sup	deviation	flexion	proximal_distal_r1	proximal_distal_r3	cmc_flexion	cmc_abduction	mp_flexion	ip_flexion	2mcp_flexion	2mcp_abduction	2pm_flexion	2md_flexion	APLpt_tx	APLpt_ty	APLpt_tz	FPLpt_tx	FPLpt_ty	FPLpt_tz	FPLpt2_tx	FPLpt2_ty	FPLpt2_tz
     10.89000000	     -3.76007929	      1.59259212	     -1.59259212	      3.76007929	     -0.76133957	      6.15287861	      2.76567659	     -2.76567659	     -6.15287861	      0.76133957	     58.71351090	     15.53748292	    -58.71351090	     38.79169881	     93.05207313	     36.27138609	      0.30200494	      0.03679163	     19.20614217	      1.05400268	      3.36700001	     22.97755231	    -27.65299999	    -34.18399999	    -19.71961514	      7.65299997	     26.93900001	     34.89800000	     -0.00003878	     -0.00001551	     -0.00007755	     -0.00004963	     -0.00014890	     -0.00008376	      0.00004241	     -0.00007788	     -0.00009345
     10.90000000	     -3.76680507	      1.59544085	     -1.59544085	      3.76680507	     -0.76270140	      6.16388447	      2.77062365	     -2.77062365	     -6.16388447	      0.76270140	     58.71161903	     15.56527533	    -58.71161903	     38.69906322	     93.01881517	     36.28430238	      0.30195932	      0.03651441	     19.20384354	      1.04606083	      3.36700001	     22.97418266	    -27.65299999	    -34.18399999	    -19.72386636	      7.65299997	     26.93900001	     34.89800000	     -0.00003848	     -0.00001539	     -0.00007695	     -0.00004925	     -0.00014775	     -0.00008311	      0.00004241	     -0.00007788	     -0.00009345
     10.91000000	     -3.76507536	      1.59470822	     -1.59470822	      3.76507536	     -0.76235117	      6.16105402	      2.76935138	     -2.76935138	     -6.16105402	      0.76235117	     58.76878656	     15.55812778	    -58.76878656	     38.63085963	     93.05235191	     36.73174546	      0.29531166	      0.03293438	     18.87313992	      0.94350053	      3.36700001	     22.68019587	    -27.65299999	    -34.18399999	    -19.73930548	      7.65299997	     26.93900001	     34.89800000	     -0.00003460	     -0.00001384	     -0.00006921	     -0.00004429	     -0.00013288	     -0.00007475	      0.00004241	     -0.00007788	     -0.00009345
     10.92000000	     -3.76826685	      1.59605998	     -1.59605998	      3.76826685	     -0.76299738	      6.16627647	      2.77169884	     -2.77169884	     -6.16627647	      0.76299738	     58.72974209	     15.57131571	    -58.72974209	     38.60912064	     93.14320372	     36.80778705	      0.29674921	      0.03330821	     18.94500485	      0.95420996	      3.36700001	     22.68555371	    -27.65299999	    -34.18399999	    -19.77284395	      7.65299997	     26.93900001	     34.89800000	     -0.00003501	     -0.00001400	     -0.00007002	     -0.00004481	     -0.00013443	     -0.00007562	      0.00004241	     -0.00007788	     -0.00009345
     10.93000000	     -3.90892135	      1.65563459	     -1.65563459	      3.90892135	     -0.79147706	      6.39643919	      2.87515539	     -2.87515539	     -6.39643919	      0.79147706	     58.34009878	     16.15253136	    -58.34009878	     38.39507764	     94.44986675	     35.45139969	      0.32023710	      0.05237413	     20.09176816	      1.50040841	      3.36700001	     22.41779254	    -27.65299999	    -34.18399999	    -21.37428518	      7.65299997	     26.93900001	     34.89800000	     -0.00005588	     -0.00002235	     -0.00011177	     -0.00007153	     -0.00021459	     -0.00012071	      0.00004241	     -0.00007788	     -0.00009345
     10.94000000	     -3.90497842	      1.65396455	     -1.65396455	      3.90497842	     -0.79067870	      6.38998710	      2.87225523	     -2.87225523	     -6.38998710	      0.79067870	     58.28405987	     16.13623830	    -58.28405987	     38.31747955	     94.60666427	     35.13532103	      0.32203306	      0.06030030	     20.17732226	      1.72747629	      3.36700001	     22.40827455	    -27.65299999	    -34.18399999	    -21.96332374	      7.65299997	     26.93900001	     34.89800000	     -0.00006474	     -0.00002590	     -0.00012948	     -0.00008287	     -0.00024860	     -0.00013984	      0.00004241	     -0.00007788	     -0.00009345
     10.95000000	     -3.91944732	      1.66009290	     -1.66009290	      3.91944732	     -0.79360835	      6.41366357	      2.88289763	     -2.88289763	     -6.41366357	      0.79360835	     58.51609135	     16.19602701	    -58.51609135	     37.79363390	     95.32270406	     34.71548120	      0.32939044	      0.08185296	     20.52468803	      2.34491449	      3.36700001	     21.76959917	    -27.65299999	    -34.18399999	    -23.28427677	      7.65299997	     26.93900001	     34.89800000	     -0.00008934	     -0.00003574	     -0.00017869	     -0.00011436	     -0.00034308	     -0.00019298	      0.00004241	     -0.00007788	     -0.00009345
     10.96000000	     -3.92516927	      1.66251645	     -1.66251645	      3.92516927	     -0.79476693	      6.42302679	      2.88710634	     -2.88710634	     -6.42302679	      0.79476693	     58.50974437	     16.21967138	    -58.50974437	     37.76212275	     95.38699150	     34.71117576	      0.32930409	      0.08178552	     20.52060588	      2.34298258	      3.36700001	     21.76982859	    -27.65299999	    -34.18399999	    -23.28330762	      7.65299997	     26.93900001	     34.89800000	     -0.00008928	     -0.00003571	     -0.00017856	     -0.00011428	     -0.00034283	     -0.00019284	      0.00004241	     -0.00007788	     -0.00009345
     10.97000000	     -3.95416220	      1.67479648	     -1.67479648	      3.95416220	     -0.80063741	      6.47046992	      2.90843170	     -2.90843170	     -6.47046992	      0.80063741	     58.04450884	     16.33947658	    -58.04450884	     37.63884571	     95.75122957	     34.13070698	      0.32933468	      0.07946852	     20.52203994	      2.27660532	      3.36700001	     21.73004897	    -27.65299999	    -34.18399999	    -22.92235229	      7.65299997	     26.93900001	     34.89800000	     -0.00008659	     -0.00003464	     -0.00017319	     -0.00011084	     -0.00033252	     -0.00018704	      0.00004241	     -0.00007788	     -0.00009345
     10.98000000	     -3.99694658	      1.69291792	     -1.69291792	      3.99694658	     -0.80930038	      6.54048097	      2.93990118	     -2.93990118	     -6.54048097	      0.80930038	     57.88017767	     16.51627114	    -57.88017767	     37.36629602	     96.45621292	     32.73177361	      0.34076700	      0.08380785	     21.05173355	      2.40091791	      3.36700001	     21.23775295	    -27.65299999	    -34.18399999	    -23.51044274	      7.65299997	     26.93900001	     34.89800000	     -0.00009163	     -0.00003665	     -0.00018326	     -0.00011729	     -0.00035186	     -0.00019792	      0.00004241	     -0.00007788	     -0.00009345
     10.99000000	     -4.03220580	      1.70785207	     -1.70785207	      4.03220580	     -0.81643965	      6.59817809	      2.96583564	     -2.96583564	     -6.59817809	      0.81643965	     57.73325536	     16.66197009	    -57.73325536	     37.25385256	     96.83408008	     31.78755611	      0.34460839	      0.07848773	     21.22698971	      2.24850798	      3.36700001	     21.13960384	    -27.65299999	    -34.18399999	    -22.85556878	      7.65299997	     26.93900001	     34.89800000	     -0.00008546	     -0.00003418	     -0.00017092	     -0.00010939	     -0.00032816	     -0.00018459	      0.00004241	     -0.00007788	     -0.00009345
     11.00000000	     -4.03791557	      1.71027046	     -1.71027046	      4.03791557	     -0.81759577	      6.60752138	      2.97003539	     -2.97003539	     -6.60752138	      0.81759577	     57.74296151	     16.68556414	    -57.74296151	     37.21094397	     96.90945969	     31.77833250	      0.34461254	      0.07839088	     21.22714897	      2.24573319	      3.36700001	     21.13697195	    -27.65299999	    -34.18399999	    -22.85963900	      7.65299997	     26.93900001	     34.89800000	     -0.00008535	     -0.00003414	     -0.00017070	     -0.00010925	     -0.00032775	     -0.00018436	      0.00004241	     -0.00007788	     -0.00009345
     11.01000000	     -4.10769950	      1.73982764	     -1.73982764	      4.10769950	     -0.83172559	      6.72171367	      3.02136403	     -3.02136403	     -6.72171367	      0.83172559	     57.26449474	     16.97392683	    -57.26449474	     36.75842344	     98.01677467	     32.78360854	      0.36679186	      0.08297423	     22.21183437	      2.37703666	      3.36700001	     21.09989716	    -27.65299999	    -34.18399999	    -21.14011469	      7.65299997	     26.93900001	     34.89800000	     -0.00009066	     -0.00003626	     -0.00018132	     -0.00011604	     -0.00034813	     -0.00019582	      0.00004241	     -0.00007788	     -0.00009345
     11.02000000	     -4.08725801	      1.73116959	     -1.73116959	      4.08725801	     -0.82758661	      6.68826384	      3.00632857	     -3.00632857	     -6.68826384	      0.82758661	     57.31029336	     16.88945806	    -57.31029336	     36.67506044	     98.14024162	     32.77339021	      0.36717872	      0.08135595	     22.22858186	      2.33067621	      3.36700001	     21.10802417	    -27.65299999	    -34.18399999	    -21.13146622	      7.65299997	     26.93900001	     34.89800000	     -0.00008878	     -0.00003551	     -0.00017756	     -0.00011364	     -0.00034092	     -0.00019177	      0.00004241	     -0.00007788	     -0.00009345
     11.03000000	     -4.12163806	      1.74573135	     -1.74573135	      4.12163806	     -0.83454787	      6.74452230	      3.03161636	     -3.03161636	     -6.74452230	      0.83454787	     57.19099421	     17.03152407	    -57.19099421	     36.51335372	     98.23099578	     32.24160927	      0.36253154	      0.07592619	     22.02625767	      2.17512514	      3.36700001	     21.57606620	    -27.65299999	    -34.18399999	    -20.43374317	      7.65299997	     26.93900001	     34.89800000	     -0.00008247	     -0.00003299	     -0.00016494	     -0.00010556	     -0.00031669	     -0.00017814	      0.00004241	     -0.00007788	     -0.00009345
     11.04000000	     -4.00643433	      1.69693649	     -1.69693649	      4.00643433	     -0.81122145	      6.55600644	      2.94687977	     -2.94687977	     -6.55600644	      0.81122145	     57.27770708	     16.55547664	    -57.27770708	     35.61239470	     99.22291389	     32.05928772	      0.36185764	      0.06994378	     21.99674798	      2.00374163	      3.36700001	     21.08991142	    -27.65299999	    -34.18399999	    -20.36177487	      7.65299997	     26.93900001	     34.89800000	     -0.00007566	     -0.00003026	     -0.00015132	     -0.00009684	     -0.00029053	     -0.00016342	      0.00004241	     -0.00007788	     -0.00009345
     11.05000000	     -4.11170866	      1.74152573	     -1.74152573	      4.11170866	     -0.83253737	      6.72827414	      3.02431292	     -3.02431292	     -6.72827414	      0.83253737	     56.76020715	     16.99049358	    -56.76020715	     35.46104771	     99.62427095	     32.67609931	      0.37763797	      0.08294169	     22.67655908	      2.37610431	      3.36700001	     19.62853328	    -27.65299999	    -34.18399999	    -19.55506371	      7.65299997	     26.93900001	     34.89800000	     -0.00009062	     -0.00003625	     -0.00018124	     -0.00011600	     -0.00034799	     -0.00019574	      0.00004241	     -0.00007788	     -0.00009345
